<svg version="1" xmlns="http://www.w3.org/2000/svg" width="682.667" height="682.667" viewBox="0 0 512.000000 512.000000"><path d="M185.7 55.5c-.1.2-4.5.6-9.7.9-5.2.4-10.6.9-12 1.1-1.4.2-4.7.6-7.5 1-2.7.4-5.9.9-7 1.1-1.1.2-3.6.7-5.5 1-1.9.3-6.2 1.3-9.5 2.1s-6.7 1.6-7.5 1.8c-5 1.1-19.7 6.3-26.5 9.5-16.9 7.7-28.6 17.3-33.5 27.4l-3.1 6.2.1 126.6c0 108.9.2 127.2 1.5 130.8 6.1 17.2 29.8 32.4 64.7 41.4 23 5.9 42.1 8.1 70.8 8 17.1 0 30.9-.7 37.1-1.9 1.8-.4 1.9.3 1.9 16.4v16.8l5-.2c5.4-.2 5.1-.5 5.2 6.7v3.8H456V202.3l-5 .3-5 .3-.1-3.2c-.1-1.8-.1-4.2-.1-5.5l.1-2.2H336v-11.8c0-6.4-.1-25.7-.3-42.7l-.2-31-3-5.3C323.6 85 301.2 71.8 269 63.7c-16.1-4.1-23.5-5.3-44-7.3-6-.6-38.7-1.3-39.3-.9z"/></svg>